{
  "accessors": [
    {
      "bufferView": 2,
      "componentType": 5126,
      "count": 3371,
      "max": [
        0.830618143081665,
        1.5007716417312622,
        0.11929211020469666
      ],
      "min": [
        -0.830618143081665,
        0.000771641731262207,
        -0.1443532407283783
      ],
      "type": "VEC3"
    },
    {
      "bufferView": 2,
      "byteOffset": 40452,
      "componentType": 5126,
      "count": 3371,
      "type": "VEC3"
    },
    {
      "bufferView": 1,
      "componentType": 5126,
      "count": 3371,
      "type": "VEC2"
    },
    {
      "bufferView": 0,
      "componentType": 5125,
      "count": 17130,
      "type": "SCALAR"
    },
    {
      "bufferView": 2,
      "byteOffset": 80904,
      "componentType": 5126,
      "count": 3371,
      "max": [
        0.8350213766098022,
        1.5057469606399536,
        0.1241401955485344
      ],
      "min": [
        -0.8350213766098022,
        -0.004206300247460604,
        -0.14932461082935333
      ],
      "type": "VEC3"
    },
    {
      "bufferView": 2,
      "byteOffset": 121356,
      "componentType": 5126,
      "count": 3371,
      "type": "VEC3"
    },
    {
      "bufferView": 1,
      "byteOffset": 26968,
      "componentType": 5126,
      "count": 3371,
      "type": "VEC2"
    },
    {
      "bufferView": 0,
      "byteOffset": 68520,
      "componentType": 5125,
      "count": 17130,
      "type": "SCALAR"
    }
  ],
  "asset": {
    "generator": "fab-model-conversion",
    "version": "2.0"
  },
  "bufferViews": [
    {
      "buffer": 0,
      "byteLength": 137040,
      "target": 34963
    },
    {
      "buffer": 0,
      "byteLength": 53936,
      "byteOffset": 137040,
      "byteStride": 8,
      "target": 34962
    },
    {
      "buffer": 0,
      "byteLength": 161808,
      "byteOffset": 190976,
      "byteStride": 12,
      "target": 34962
    }
  ],
  "buffers": [
    {
      "byteLength": 352784,
      "uri": "scene.bin"
    }
  ],
  "extensionsUsed": [
    "KHR_materials_unlit"
  ],
  "images": [
    {
      "uri": "textures/Char_base_baseColor.png"
    }
  ],
  "materials": [
    {
      "doubleSided": true,
      "extensions": {
        "KHR_materials_unlit": {}
      },
      "name": "Char_base",
      "pbrMetallicRoughness": {
        "baseColorTexture": {
          "index": 0
        },
        "metallicFactor": 0.0
      }
    },
    {
      "emissiveFactor": [
        0.00354348,
        0.000539754,
        0.000899453
      ],
      "extensions": {
        "KHR_materials_unlit": {}
      },
      "name": "material",
      "pbrMetallicRoughness": {
        "baseColorFactor": [
          0.024031858959787163,
          0.01695027731712391,
          0.012175089470430457,
          1.0
        ],
        "metallicFactor": 0.0
      }
    }
  ],
  "meshes": [
    {
      "name": "Object_0",
      "primitives": [
        {
          "attributes": {
            "NORMAL": 1,
            "POSITION": 0,
            "TEXCOORD_0": 2
          },
          "indices": 3,
          "material": 0,
          "mode": 4
        }
      ]
    },
    {
      "name": "Object_1",
      "primitives": [
        {
          "attributes": {
            "NORMAL": 5,
            "POSITION": 4,
            "TEXCOORD_0": 6
          },
          "indices": 7,
          "material": 1,
          "mode": 4
        }
      ]
    }
  ],
  "nodes": [
    {
      "children": [
        1
      ],
      "matrix": [
        1.0,
        0.0,
        0.0,
        0.0,
        0.0,
        2.220446049250313e-16,
        -1.0,
        0.0,
        0.0,
        1.0,
        2.220446049250313e-16,
        0.0,
        0.0,
        0.0,
        0.0,
        1.0
      ],
      "name": "Sketchfab_model"
    },
    {
      "children": [
        2
      ],
      "name": "root"
    },
    {
      "children": [
        3
      ],
      "matrix": [
        1.0,
        0.0,
        0.0,
        0.0,
        0.0,
        2.220446049250313e-16,
        1.0,
        0.0,
        0.0,
        -1.0,
        2.220446049250313e-16,
        0.0,
        0.0,
        0.0,
        0.0,
        1.0
      ],
      "name": "GLTF_SceneRootNode"
    },
    {
      "children": [
        4,
        5
      ],
      "name": "Body_OL_0"
    },
    {
      "mesh": 0,
      "name": "Object_4"
    },
    {
      "mesh": 1,
      "name": "Object_5"
    }
  ],
  "samplers": [
    {
      "magFilter": 9729,
      "minFilter": 9987,
      "wrapS": 10497,
      "wrapT": 10497
    }
  ],
  "scene": 0,
  "scenes": [
    {
      "name": "Sketchfab_Scene",
      "nodes": [
        0
      ]
    }
  ],
  "textures": [
    {
      "sampler": 0,
      "source": 0
    }
  ]
}
